<svg width="512" height="512" viewBox="0 0 512 512" fill="none" xmlns="http://www.w3.org/2000/svg">
<path d="M248.187 408.953L252.393 167.149H133.944V125.097H252.393V48H291.642V125.097H411.492V167.149H291.642V425.774C259.401 488.152 168.287 460.818 176.698 425.774C183.426 397.739 227.161 402.878 248.187 408.953Z" fill="#4963F7" stroke="#4963F7"/>
<path d="M169.573 344.699C168.453 345.723 167.461 346.907 166.597 348.251C165.733 349.563 165.541 350.539 166.021 351.179C166.437 351.723 167.061 351.931 167.893 351.803C168.757 351.643 169.685 351.291 170.677 350.747C171.669 350.203 172.645 349.515 173.605 348.683C174.885 347.595 175.909 346.411 176.677 345.131C177.445 343.851 177.589 342.875 177.109 342.203C176.757 341.627 176.101 341.467 175.141 341.723C174.181 341.979 173.285 342.331 172.453 342.779C171.621 343.227 170.901 343.691 170.293 344.171L170.005 344.363C169.845 344.491 169.701 344.603 169.573 344.699ZM173.269 338.987C175.477 338.987 177.125 339.579 178.213 340.763C179.333 341.915 179.749 343.563 179.461 345.707C179.237 347.755 178.245 349.547 176.485 351.083C175.589 351.883 174.421 352.603 172.981 353.243C171.573 353.851 170.245 354.171 168.997 354.203C167.973 354.267 167.061 354.139 166.261 353.819V354.923L166.309 369.131C166.341 374.315 166.357 379.051 166.357 383.339V388.043V389.339L166.405 389.819H163.765V389.339V388.043V383.339L163.717 369.179C163.685 363.995 163.669 359.259 163.669 354.971C163.605 351.419 163.589 349.419 163.621 348.971C163.621 348.459 163.669 347.883 163.765 347.243V347.195C164.021 345.179 165.125 343.307 167.077 341.579C169.029 339.851 171.093 338.987 173.269 338.987Z" fill="#8257E5"/>
<path d="M148.547 334.886C147.427 335.91 146.435 337.094 145.571 338.438C144.707 339.75 144.515 340.726 144.995 341.366C145.411 341.91 146.035 342.118 146.867 341.99C147.731 341.83 148.659 341.478 149.651 340.934C150.643 340.39 151.619 339.702 152.579 338.87C153.859 337.782 154.883 336.598 155.651 335.318C156.419 334.038 156.563 333.062 156.083 332.39C155.731 331.814 155.075 331.654 154.115 331.91C153.155 332.166 152.259 332.518 151.427 332.966C150.595 333.414 149.875 333.878 149.267 334.358L148.979 334.55C148.819 334.678 148.675 334.79 148.547 334.886ZM152.243 329.174C154.451 329.174 156.099 329.766 157.187 330.95C158.307 332.102 158.723 333.75 158.435 335.894C158.211 337.942 157.219 339.734 155.459 341.27C154.563 342.07 153.395 342.79 151.955 343.43C150.547 344.038 149.219 344.358 147.971 344.39C146.947 344.454 146.035 344.326 145.235 344.006V345.11L145.283 359.318C145.315 364.502 145.331 369.238 145.331 373.526V378.23V379.526L145.379 380.006H142.739V379.526V378.23V373.526L142.691 359.366C142.659 354.182 142.643 349.446 142.643 345.158C142.579 341.606 142.563 339.606 142.595 339.158C142.595 338.646 142.643 338.07 142.739 337.43V337.382C142.995 335.366 144.099 333.494 146.051 331.766C148.003 330.038 150.067 329.174 152.243 329.174Z" fill="#8257E5"/>
<path d="M113.57 324.084C113.57 327.732 113.554 331.412 113.522 335.124C113.522 335.54 113.522 336.1 113.522 336.804C113.554 337.508 113.57 337.988 113.57 338.244C115.938 336.164 117.986 333.892 119.714 331.428C120.706 330.02 121.314 328.644 121.538 327.3C121.794 325.924 121.73 324.788 121.346 323.892C120.962 322.996 120.402 322.292 119.666 321.78C118.962 321.268 118.21 321.06 117.41 321.156C115.938 321.348 114.658 322.324 113.57 324.084ZM113.666 293.748V294.276V295.86C113.666 297.396 113.65 299.236 113.618 301.38C113.618 306.5 113.602 312.132 113.57 318.276V320.58C116.002 318.884 118.434 317.908 120.866 317.652C122.978 317.428 124.754 318.004 126.194 319.38C127.666 320.756 128.354 322.5 128.258 324.612C128.13 327.236 126.594 330.084 123.65 333.156C120.738 336.196 116.994 339.22 112.418 342.228C111.938 342.548 111.538 342.756 111.218 342.852L110.354 343.572L110.306 342.228V340.692V335.124C110.338 330.004 110.354 324.388 110.354 318.276C110.386 312.132 110.402 306.5 110.402 301.38V295.86C110.434 295.22 110.45 294.692 110.45 294.276V293.748H113.666Z" fill="#8257E5"/>
<path d="M64.634 316.308C64.89 314.26 66.01 312.356 67.994 310.596C69.978 308.836 72.074 307.956 74.282 307.956C76.234 307.956 77.77 308.404 78.89 309.3C80.01 310.196 80.602 311.492 80.666 313.188V313.236V318.804C80.698 323.892 80.714 329.492 80.714 335.604C80.746 341.684 80.762 347.268 80.762 352.356C80.762 354.532 80.778 356.372 80.81 357.876V359.46V359.988H78.122V359.46V357.924V352.356C78.09 347.268 78.074 341.684 78.074 335.604C78.042 329.78 78.026 324.516 78.026 319.812L77.546 320.292C76.65 321.092 75.466 321.812 73.994 322.452C72.554 323.092 71.21 323.428 69.962 323.46C69.226 323.46 68.57 323.396 67.994 323.268C67.418 323.14 66.794 322.868 66.122 322.452C65.45 322.036 64.97 321.316 64.682 320.292C64.394 319.236 64.362 317.924 64.586 316.356L64.634 316.308ZM70.538 313.764C69.386 314.82 68.362 316.02 67.466 317.364C66.602 318.708 66.426 319.7 66.938 320.34C67.674 321.044 68.746 321.14 70.154 320.628C71.594 320.084 73.082 319.14 74.618 317.796C75.93 316.676 76.97 315.476 77.738 314.196C78.538 312.884 78.682 311.892 78.17 311.22C77.818 310.644 77.146 310.484 76.154 310.74C75.194 310.996 74.282 311.348 73.418 311.796C72.586 312.244 71.866 312.708 71.258 313.188C71.066 313.348 70.826 313.54 70.538 313.764Z" fill="#8257E5"/>
<path d="M22.888 299.727C22.216 299.727 21.608 299.631 21.064 299.439V300.735C21.032 303.743 21.016 307.071 21.016 310.719C21.016 312.607 21 314.383 20.968 316.047C20.968 317.679 20.968 319.215 20.968 320.655H24.04H34.216V320.607V310.671C34.248 307.087 34.264 303.791 34.264 300.783V297.471V296.655C34.264 296.239 34.28 295.919 34.312 295.695C34.472 294.447 35.064 293.359 36.088 292.431C37.144 291.471 38.36 290.895 39.736 290.703C41.048 290.543 42.088 290.847 42.856 291.615C43.656 292.351 44.008 293.375 43.912 294.687C43.784 296.031 43.112 297.215 41.896 298.239C40.712 299.263 39.448 299.775 38.104 299.775C37.4 299.775 36.776 299.679 36.232 299.487V300.783C36.232 303.791 36.216 307.087 36.184 310.671V320.607V320.655H46.072H49.24V310.719C49.272 307.071 49.288 303.743 49.288 300.735V297.423V296.607C49.288 296.191 49.304 295.855 49.336 295.599C49.496 294.383 50.088 293.311 51.112 292.383C52.168 291.423 53.384 290.847 54.76 290.655C56.072 290.463 57.112 290.751 57.88 291.519C58.68 292.255 59.016 293.295 58.888 294.639C58.792 295.951 58.136 297.119 56.92 298.143C55.736 299.167 54.472 299.679 53.128 299.679C52.392 299.679 51.768 299.583 51.256 299.391V300.735C51.256 303.775 51.24 307.103 51.208 310.719V320.703C51.176 321.983 51.16 323.087 51.16 324.015V324.927V325.263H49.192H46.072H35.08H24.04H20.968H20.008H19.384H19.048V325.215H19V324.927V323.967V320.703L19.048 310.719C19.048 307.071 19.064 303.727 19.096 300.687V297.423V296.895C19.032 296.511 19.032 296.079 19.096 295.599C19.256 294.351 19.864 293.263 20.92 292.335C21.976 291.407 23.192 290.847 24.568 290.655C25.88 290.463 26.92 290.751 27.688 291.519C28.488 292.255 28.824 293.295 28.696 294.639C28.6 295.951 27.944 297.119 26.728 298.143C25.544 299.167 24.264 299.695 22.888 299.727Z" fill="#8257E5"/>
<path d="M126.2 231.44C126.28 241.92 120.28 249.28 108.2 253.52C103.16 255.28 97.12 256.36 90.08 256.76L89.12 281.48L85.64 281.36L86.84 245.48H83.6L82.76 281.72L72.68 282.44L74.84 199.28L84.56 198.92L83.96 222.2H87.68C87.92 216.84 88.2 209.08 88.52 198.92C99.96 198.12 109.16 200.88 116.12 207.2C122.76 213.28 126.12 221.36 126.2 231.44ZM118.28 232.64C118.68 226.24 116.56 220.68 111.92 215.96C107.36 211.16 102 208.76 95.84 208.76C94.24 208.76 92.68 208.96 91.16 209.36L89.48 251.36C94.92 250.72 99.6 249.64 103.52 248.12C112.88 244.68 117.8 239.52 118.28 232.64ZM87.68 224.6H83.96L83.84 228.32H87.44C87.52 227.84 87.6 226.6 87.68 224.6ZM87.44 230.72H83.84L83.72 236.24H87.2L87.44 230.72ZM87.08 238.64H83.72L83.6 243.08H86.96L87.08 238.64ZM160.523 277.4L157.523 280.76C155.923 282.52 154.443 283.4 153.083 283.4C150.443 283.4 147.683 281.08 144.803 276.44C142.803 273.16 141.203 269.72 140.003 266.12C138.803 268.2 136.763 271.52 133.883 276.08C133.163 277.2 132.083 278.76 130.643 280.76L128.003 278.72C131.363 273.68 134.723 267.12 138.083 259.04C136.323 251.36 135.443 243.56 135.443 235.64C135.443 227.32 136.363 219.36 138.203 211.76C140.683 201.36 144.243 196.16 148.883 196.16C151.763 196.16 153.363 198.56 153.683 203.36C153.843 205.44 153.923 207.56 153.923 209.72C153.923 227.16 150.843 243.04 144.683 257.36C147.323 267.44 151.243 273.68 156.443 276.08C157.243 276.56 158.043 276.08 158.843 274.64L160.523 277.4ZM147.323 207.8C147.323 207.48 147.203 206.56 146.963 205.04C143.683 211.6 142.043 221.64 142.043 235.16C142.043 238.44 142.243 242.2 142.643 246.44C145.923 235.32 147.563 224.52 147.563 214.04C147.563 211.88 147.483 209.8 147.323 207.8ZM213.627 274.4L213.027 280.76C211.107 282.52 209.147 283.4 207.147 283.4C203.307 283.4 200.987 280.04 200.187 273.32C198.587 275.56 195.827 277.6 191.907 279.44C187.987 281.28 184.147 282.2 180.387 282.2C169.667 282.2 164.307 277.16 164.307 267.08C164.307 263.32 165.747 259.4 168.627 255.32C172.707 249.56 178.467 246.68 185.907 246.68C191.667 246.68 196.347 248.04 199.947 250.76C198.267 237.16 193.947 230.36 186.987 230.36C183.627 230.36 180.267 231.88 176.907 234.92L174.387 231.8C175.827 229.32 178.387 227.28 182.067 225.68C185.427 224.24 188.587 223.6 191.547 223.76C197.707 224.08 202.427 227.44 205.707 233.84C208.587 239.36 210.027 246.12 210.027 254.12C210.027 255.56 209.947 257.44 209.787 259.76C209.707 262.08 209.667 263.88 209.667 265.16C209.667 271.88 209.627 274.16 209.547 272C209.627 274.88 210.107 276.32 210.987 276.32C211.227 276.32 211.627 276.08 212.187 275.6C212.747 275.04 213.227 274.64 213.627 274.4ZM200.307 261.2C197.267 257.2 194.027 254.76 190.587 253.88L189.747 274.76C193.827 273.24 197.227 271.08 199.947 268.28C199.947 268.36 200.067 266 200.307 261.2ZM188.187 253.52C187.227 253.36 186.467 253.28 185.907 253.28L184.947 275.6C185.507 275.6 186.267 275.52 187.227 275.36C187.307 275.28 187.627 268 188.187 253.52ZM183.507 253.16H183.267C182.547 253.16 181.747 253.32 180.867 253.64L179.907 275.36C180.547 275.36 181.467 275.44 182.667 275.6C182.987 268.08 183.267 260.6 183.507 253.16ZM178.347 254.72C173.067 257.6 170.427 261.28 170.427 265.76C170.427 270.64 172.827 273.68 177.627 274.88C177.947 268.16 178.187 261.44 178.347 254.72ZM266.279 227.72C264.839 232.28 262.919 239.44 260.519 249.2C258.199 258.56 256.319 265.48 254.879 269.96C250.079 285.08 244.079 296.16 236.879 303.2C232.799 307.2 227.999 309.2 222.479 309.2C219.039 309.2 216.399 307.88 214.559 305.24C212.959 302.92 212.159 299.96 212.159 296.36C212.159 293.56 212.999 290.72 214.679 287.84C217.239 283.6 220.999 281.48 225.959 281.48C227.479 281.48 228.959 282.2 230.399 283.64C231.919 285.16 232.679 286.68 232.679 288.2C232.679 289.96 232.239 291.64 231.359 293.24L227.039 297.68L224.879 296.12C225.519 294.68 225.839 293.44 225.839 292.4C225.839 291.44 225.519 290.52 224.879 289.64C224.319 288.76 223.559 288.32 222.599 288.32C221.639 288.32 220.799 288.8 220.079 289.76C219.359 290.72 218.999 291.52 218.999 292.16C218.999 298.96 221.559 302.36 226.679 302.36C229.319 302.36 231.799 300.96 234.119 298.16C237.159 294.56 240.039 288.96 242.759 281.36L229.919 258.8L226.079 261.32L224.879 259.4L228.839 256.88L227.639 254.84C226.999 255.24 225.759 256.04 223.919 257.24L222.719 255.32C223.999 254.44 225.279 253.64 226.559 252.92L225.239 250.52L221.519 252.92L220.319 251L224.039 248.6C224.119 248.52 220.959 242.88 214.559 231.68L224.999 225.92L232.919 242.96L240.959 237.8L242.159 239.72L233.879 245C234.119 245.4 234.519 246.2 235.079 247.4L243.359 242.12L244.559 244.04L236.039 249.44L237.119 251.6L245.519 246.2L246.719 248.12L238.079 253.64L246.359 271.16C247.719 266.68 249.679 259.24 252.239 248.84C254.879 238.04 256.839 230.48 258.119 226.16L266.279 227.72ZM297.281 277.4L294.281 280.76C292.681 282.52 291.201 283.4 289.841 283.4C287.201 283.4 284.441 281.08 281.561 276.44C279.561 273.16 277.961 269.72 276.761 266.12C275.561 268.2 273.521 271.52 270.641 276.08C269.921 277.2 268.841 278.76 267.401 280.76L264.761 278.72C268.121 273.68 271.481 267.12 274.841 259.04C273.081 251.36 272.201 243.56 272.201 235.64C272.201 227.32 273.121 219.36 274.961 211.76C277.441 201.36 281.001 196.16 285.641 196.16C288.521 196.16 290.121 198.56 290.441 203.36C290.601 205.44 290.681 207.56 290.681 209.72C290.681 227.16 287.601 243.04 281.441 257.36C284.081 267.44 288.001 273.68 293.201 276.08C294.001 276.56 294.801 276.08 295.601 274.64L297.281 277.4ZM284.081 207.8C284.081 207.48 283.961 206.56 283.721 205.04C280.441 211.6 278.801 221.64 278.801 235.16C278.801 238.44 279.001 242.2 279.401 246.44C282.681 235.32 284.321 224.52 284.321 214.04C284.321 211.88 284.241 209.8 284.081 207.8ZM321.224 210.44C321.224 213.32 320.184 215.8 318.104 217.88C316.104 219.88 313.664 220.88 310.784 220.88C307.904 220.88 305.424 219.88 303.344 217.88C301.344 215.8 300.344 213.32 300.344 210.44C300.344 207.56 301.344 205.12 303.344 203.12C305.424 201.04 307.904 200 310.784 200C313.664 200 316.104 201.04 318.104 203.12C320.184 205.12 321.224 207.56 321.224 210.44ZM317.024 225.8L316.784 281.96L314.864 281.72L314.624 225.8H317.024ZM312.464 282.2L305.024 281.48L304.064 226.04H312.464V282.2ZM315.224 210.44C315.224 209.24 314.784 208.2 313.904 207.32C313.024 206.44 311.984 206 310.784 206C309.584 206 308.544 206.44 307.664 207.32C306.784 208.2 306.344 209.24 306.344 210.44C306.344 211.64 306.784 212.68 307.664 213.56C308.544 214.44 309.584 214.88 310.784 214.88C311.984 214.88 313.024 214.44 313.904 213.56C314.784 212.68 315.224 211.64 315.224 210.44ZM346.615 205.04C346.455 207.76 346.135 213.96 345.655 223.64L334.735 223.88L334.375 210.08L346.615 205.04ZM354.775 227.96L325.495 228.68V226.28L354.775 225.56V227.96ZM354.775 232.04L325.495 232.76V230.36L354.775 229.64V232.04ZM365.455 263.48C365.455 271.24 362.935 276.76 357.895 280.04C354.855 281.96 351.335 282.92 347.335 282.92C343.815 282.92 340.935 281.36 338.695 278.24C336.615 275.36 335.575 271.96 335.575 268.04C335.575 259.24 335.415 248.12 335.095 234.68L345.415 234.44L343.855 263.84C343.855 272.08 346.415 276.2 351.535 276.2C353.535 276.2 355.295 275.8 356.815 275C358.015 272.92 358.615 270.48 358.615 267.68C358.615 264.48 356.815 262.88 353.215 262.88L350.095 266.12L347.815 264.8C348.535 262 349.895 259.8 351.895 258.2C353.655 256.76 355.455 256.04 357.295 256.04C359.615 256.04 361.535 256.76 363.055 258.2C364.655 259.56 365.455 261.32 365.455 263.48ZM420.429 278.36C417.949 279 415.429 279.68 412.869 280.4C409.189 281.12 404.469 281.48 398.709 281.48C391.189 281.48 385.029 279.24 380.229 274.76C374.709 269.64 371.949 262.12 371.949 252.2C371.949 244.2 375.309 237.84 382.029 233.12C387.709 229.04 394.189 227 401.469 227C412.429 227 418.749 232.52 420.429 243.56L380.109 244.52C379.629 245.8 379.349 246.84 379.269 247.64L420.069 246.44L419.829 249.32L378.789 250.52V252.2C378.789 259.16 380.869 265 385.029 269.72C388.949 274.2 393.749 276.44 399.429 276.44C405.349 276.44 411.989 275.64 419.349 274.04L420.429 278.36ZM414.309 239.24C411.829 234.44 407.669 232.04 401.829 232.04C392.549 232.04 385.869 235.12 381.789 241.28L414.309 239.24ZM463.13 248.12L457.49 246.68C458.37 244.52 458.81 242.48 458.81 240.56C458.81 236.64 457.09 234.68 453.65 234.68C448.61 234.68 444.33 238.68 440.81 246.68L440.57 260.12L431.69 260L432.41 234.68L424.25 233.48V227.96L439.85 228.2L440.09 236.12C441.69 234.28 443.29 232.44 444.89 230.6C447.37 228.52 450.77 227.48 455.09 227.48C458.37 227.48 460.97 228.68 462.89 231.08C464.57 233.32 465.41 236.08 465.41 239.36C465.41 242.56 464.65 245.48 463.13 248.12ZM448.49 264.68L428.57 263.96V261.56L448.49 262.28V264.68ZM440.45 266.12L440.33 281L430.97 282.44L431.45 266L440.45 266.12Z" fill="black"/>
<path d="M432.36 311.36L432.12 313.904C431.352 314.608 430.568 314.96 429.768 314.96C428.232 314.96 427.304 313.616 426.984 310.928C426.344 311.824 425.24 312.64 423.672 313.376C422.104 314.112 420.568 314.48 419.064 314.48C414.776 314.48 412.632 312.464 412.632 308.432C412.632 306.928 413.208 305.36 414.36 303.728C415.992 301.424 418.296 300.272 421.272 300.272C423.576 300.272 425.448 300.816 426.888 301.904C426.216 296.464 424.488 293.744 421.704 293.744C420.36 293.744 419.016 294.352 417.672 295.568L416.664 294.32C417.24 293.328 418.264 292.512 419.736 291.872C421.08 291.296 422.344 291.04 423.528 291.104C425.992 291.232 427.88 292.576 429.192 295.136C430.344 297.344 430.92 300.048 430.92 303.248C430.92 303.824 430.888 304.576 430.824 305.504C430.792 306.432 430.776 307.152 430.776 307.664C430.776 310.352 430.76 311.264 430.728 310.4C430.76 311.552 430.952 312.128 431.304 312.128C431.4 312.128 431.56 312.032 431.784 311.84C432.008 311.616 432.2 311.456 432.36 311.36ZM427.032 306.08C425.816 304.48 424.52 303.504 423.144 303.152L422.808 311.504C424.44 310.896 425.8 310.032 426.888 308.912C426.888 308.944 426.936 308 427.032 306.08ZM422.184 303.008C421.8 302.944 421.496 302.912 421.272 302.912L420.888 311.84C421.112 311.84 421.416 311.808 421.8 311.744C421.832 311.712 421.96 308.8 422.184 303.008ZM420.312 302.864H420.216C419.928 302.864 419.608 302.928 419.256 303.056L418.872 311.744C419.128 311.744 419.496 311.776 419.976 311.84C420.104 308.832 420.216 305.84 420.312 302.864ZM418.248 303.488C416.136 304.64 415.08 306.112 415.08 307.904C415.08 309.856 416.04 311.072 417.96 311.552C418.088 308.864 418.184 306.176 418.248 303.488ZM453.901 302.72C453.901 305.632 453.053 308.016 451.357 309.872C449.693 311.696 447.725 312.656 445.453 312.752C443.053 312.848 440.909 312.16 439.021 310.688L439.165 319.184L442.093 319.376L441.997 320.336L439.165 320.144L439.213 322.016L441.949 322.208L441.853 323.168L439.213 322.976L439.309 326.72L435.325 326.336L435.373 322.688L433.933 322.592L434.029 321.632L435.373 321.728L435.421 319.856L434.077 319.76L434.173 318.8L435.421 318.896L435.805 291.776L438.637 291.968L438.685 294.368C439.933 293.472 441.709 292.976 444.013 292.88C446.573 292.784 448.829 293.648 450.781 295.472C452.861 297.392 453.901 299.808 453.901 302.72ZM450.637 302.624C450.637 300.672 449.981 298.976 448.669 297.536C447.389 296.064 445.901 295.248 444.205 295.088C442.189 294.896 440.365 295.328 438.733 296.384C438.829 300.288 438.893 304.192 438.925 308.096C440.877 309.632 442.733 310.336 444.493 310.208C446.285 310.08 447.773 309.216 448.957 307.616C450.077 306.112 450.637 304.448 450.637 302.624ZM447.181 298.928C447.181 299.856 446.717 300.32 445.789 300.32C444.861 300.32 444.397 299.856 444.397 298.928C444.397 298 444.861 297.536 445.789 297.536C446.717 297.536 447.181 298 447.181 298.928ZM448.813 302.288C449.133 302.96 448.957 303.456 448.285 303.776C447.581 304.096 447.085 303.92 446.797 303.248C446.477 302.544 446.653 302.048 447.325 301.76C447.997 301.472 448.493 301.648 448.813 302.288ZM447.373 306.032C447.757 306.736 447.581 307.28 446.845 307.664C446.429 307.856 446.029 307.84 445.645 307.616C445.261 307.36 445.069 307.008 445.069 306.56C445.069 305.76 445.453 305.36 446.221 305.36C446.733 305.36 447.117 305.584 447.373 306.032ZM475.932 302.72C475.932 305.632 475.084 308.016 473.388 309.872C471.724 311.696 469.756 312.656 467.484 312.752C465.084 312.848 462.94 312.16 461.052 310.688L461.196 319.184L464.124 319.376L464.028 320.336L461.196 320.144L461.244 322.016L463.98 322.208L463.884 323.168L461.244 322.976L461.34 326.72L457.356 326.336L457.404 322.688L455.964 322.592L456.06 321.632L457.404 321.728L457.452 319.856L456.108 319.76L456.204 318.8L457.452 318.896L457.836 291.776L460.668 291.968L460.716 294.368C461.964 293.472 463.74 292.976 466.044 292.88C468.604 292.784 470.86 293.648 472.812 295.472C474.892 297.392 475.932 299.808 475.932 302.72ZM472.668 302.624C472.668 300.672 472.012 298.976 470.7 297.536C469.42 296.064 467.932 295.248 466.236 295.088C464.22 294.896 462.396 295.328 460.764 296.384C460.86 300.288 460.924 304.192 460.956 308.096C462.908 309.632 464.764 310.336 466.524 310.208C468.316 310.08 469.804 309.216 470.988 307.616C472.108 306.112 472.668 304.448 472.668 302.624ZM469.212 298.928C469.212 299.856 468.748 300.32 467.82 300.32C466.892 300.32 466.428 299.856 466.428 298.928C466.428 298 466.892 297.536 467.82 297.536C468.748 297.536 469.212 298 469.212 298.928ZM470.844 302.288C471.164 302.96 470.988 303.456 470.316 303.776C469.612 304.096 469.116 303.92 468.828 303.248C468.508 302.544 468.684 302.048 469.356 301.76C470.028 301.472 470.524 301.648 470.844 302.288ZM469.404 306.032C469.788 306.736 469.612 307.28 468.876 307.664C468.46 307.856 468.06 307.84 467.676 307.616C467.292 307.36 467.1 307.008 467.1 306.56C467.1 305.76 467.484 305.36 468.252 305.36C468.764 305.36 469.148 305.584 469.404 306.032Z" fill="black"/>
</svg>
