<svg width="512" height="512" viewBox="0 0 512 512" fill="none" xmlns="http://www.w3.org/2000/svg">
<path d="M247.187 409.953L251.393 168.149H132.944V126.097H251.393V49H290.642V126.097H410.492V168.149H290.642V426.774C258.401 489.152 167.287 461.818 175.698 426.774C182.426 398.739 226.161 403.878 247.187 409.953Z" fill="#8257E5" stroke="#8257E5"/>
<path d="M168.573 345.698C167.453 346.722 166.461 347.906 165.597 349.25C164.733 350.562 164.541 351.538 165.021 352.178C165.437 352.722 166.061 352.93 166.893 352.802C167.757 352.642 168.685 352.29 169.677 351.746C170.669 351.202 171.645 350.514 172.605 349.682C173.885 348.594 174.909 347.41 175.677 346.13C176.445 344.85 176.589 343.874 176.109 343.202C175.757 342.626 175.101 342.466 174.141 342.722C173.181 342.978 172.285 343.33 171.453 343.778C170.621 344.226 169.901 344.69 169.293 345.17L169.005 345.362C168.845 345.49 168.701 345.602 168.573 345.698ZM172.269 339.986C174.477 339.986 176.125 340.578 177.213 341.762C178.333 342.914 178.749 344.562 178.461 346.706C178.237 348.754 177.245 350.546 175.485 352.082C174.589 352.882 173.421 353.602 171.981 354.242C170.573 354.85 169.245 355.17 167.997 355.202C166.973 355.266 166.061 355.138 165.261 354.818V355.922L165.309 370.13C165.341 375.314 165.357 380.05 165.357 384.338V389.042V390.338L165.405 390.818H162.765V390.338V389.042V384.338L162.717 370.178C162.685 364.994 162.669 360.258 162.669 355.97C162.605 352.418 162.589 350.418 162.621 349.97C162.621 349.458 162.669 348.882 162.765 348.242V348.194C163.021 346.178 164.125 344.306 166.077 342.578C168.029 340.85 170.093 339.986 172.269 339.986Z" fill="#4963F7"/>
<path d="M147.547 335.886C146.427 336.91 145.435 338.094 144.571 339.438C143.707 340.75 143.515 341.726 143.995 342.366C144.411 342.91 145.035 343.118 145.867 342.99C146.731 342.83 147.659 342.478 148.651 341.934C149.643 341.39 150.619 340.702 151.579 339.87C152.859 338.782 153.883 337.598 154.651 336.318C155.419 335.038 155.563 334.062 155.083 333.39C154.731 332.814 154.075 332.654 153.115 332.91C152.155 333.166 151.259 333.518 150.427 333.966C149.595 334.414 148.875 334.878 148.267 335.358L147.979 335.55C147.819 335.678 147.675 335.79 147.547 335.886ZM151.243 330.174C153.451 330.174 155.099 330.766 156.187 331.95C157.307 333.102 157.723 334.75 157.435 336.894C157.211 338.942 156.219 340.734 154.459 342.27C153.563 343.07 152.395 343.79 150.955 344.43C149.547 345.038 148.219 345.358 146.971 345.39C145.947 345.454 145.035 345.326 144.235 345.006V346.11L144.283 360.318C144.315 365.502 144.331 370.238 144.331 374.526V379.23V380.526L144.379 381.006H141.739V380.526V379.23V374.526L141.691 360.366C141.659 355.182 141.643 350.446 141.643 346.158C141.579 342.606 141.563 340.606 141.595 340.158C141.595 339.646 141.643 339.07 141.739 338.43V338.382C141.995 336.366 143.099 334.494 145.051 332.766C147.003 331.038 149.067 330.174 151.243 330.174Z" fill="#4963F7"/>
<path d="M112.57 325.084C112.57 328.732 112.554 332.412 112.522 336.124C112.522 336.54 112.522 337.1 112.522 337.804C112.554 338.508 112.57 338.988 112.57 339.244C114.938 337.164 116.986 334.892 118.714 332.428C119.706 331.02 120.314 329.644 120.538 328.3C120.794 326.924 120.73 325.788 120.346 324.892C119.962 323.996 119.402 323.292 118.666 322.78C117.962 322.268 117.21 322.06 116.41 322.156C114.938 322.348 113.658 323.324 112.57 325.084ZM112.666 294.748V295.276V296.86C112.666 298.396 112.65 300.236 112.618 302.38C112.618 307.5 112.602 313.132 112.57 319.276V321.58C115.002 319.884 117.434 318.908 119.866 318.652C121.978 318.428 123.754 319.004 125.194 320.38C126.666 321.756 127.354 323.5 127.258 325.612C127.13 328.236 125.594 331.084 122.65 334.156C119.738 337.196 115.994 340.22 111.418 343.228C110.938 343.548 110.538 343.756 110.218 343.852L109.354 344.572L109.306 343.228V341.692V336.124C109.338 331.004 109.354 325.388 109.354 319.276C109.386 313.132 109.402 307.5 109.402 302.38V296.86C109.434 296.22 109.45 295.692 109.45 295.276V294.748H112.666Z" fill="#4963F7"/>
<path d="M63.634 317.308C63.89 315.26 65.01 313.356 66.994 311.596C68.978 309.836 71.074 308.956 73.282 308.956C75.234 308.956 76.77 309.404 77.89 310.3C79.01 311.196 79.602 312.492 79.666 314.188V314.236V319.804C79.698 324.892 79.714 330.492 79.714 336.604C79.746 342.684 79.762 348.268 79.762 353.356C79.762 355.532 79.778 357.372 79.81 358.876V360.46V360.988H77.122V360.46V358.924V353.356C77.09 348.268 77.074 342.684 77.074 336.604C77.042 330.78 77.026 325.516 77.026 320.812L76.546 321.292C75.65 322.092 74.466 322.812 72.994 323.452C71.554 324.092 70.21 324.428 68.962 324.46C68.226 324.46 67.57 324.396 66.994 324.268C66.418 324.14 65.794 323.868 65.122 323.452C64.45 323.036 63.97 322.316 63.682 321.292C63.394 320.236 63.362 318.924 63.586 317.356L63.634 317.308ZM69.538 314.764C68.386 315.82 67.362 317.02 66.466 318.364C65.602 319.708 65.426 320.7 65.938 321.34C66.674 322.044 67.746 322.14 69.154 321.628C70.594 321.084 72.082 320.14 73.618 318.796C74.93 317.676 75.97 316.476 76.738 315.196C77.538 313.884 77.682 312.892 77.17 312.22C76.818 311.644 76.146 311.484 75.154 311.74C74.194 311.996 73.282 312.348 72.418 312.796C71.586 313.244 70.866 313.708 70.258 314.188C70.066 314.348 69.826 314.54 69.538 314.764Z" fill="#4963F7"/>
<path d="M21.888 300.727C21.216 300.727 20.608 300.631 20.064 300.439V301.735C20.032 304.743 20.016 308.071 20.016 311.719C20.016 313.607 20 315.383 19.968 317.047C19.968 318.679 19.968 320.215 19.968 321.655H23.04H33.216V321.607V311.671C33.248 308.087 33.264 304.791 33.264 301.783V298.471V297.655C33.264 297.239 33.28 296.919 33.312 296.695C33.472 295.447 34.064 294.359 35.088 293.431C36.144 292.471 37.36 291.895 38.736 291.703C40.048 291.543 41.088 291.847 41.856 292.615C42.656 293.351 43.008 294.375 42.912 295.687C42.784 297.031 42.112 298.215 40.896 299.239C39.712 300.263 38.448 300.775 37.104 300.775C36.4 300.775 35.776 300.679 35.232 300.487V301.783C35.232 304.791 35.216 308.087 35.184 311.671V321.607V321.655H45.072H48.24V311.719C48.272 308.071 48.288 304.743 48.288 301.735V298.423V297.607C48.288 297.191 48.304 296.855 48.336 296.599C48.496 295.383 49.088 294.311 50.112 293.383C51.168 292.423 52.384 291.847 53.76 291.655C55.072 291.463 56.112 291.751 56.88 292.519C57.68 293.255 58.016 294.295 57.888 295.639C57.792 296.951 57.136 298.119 55.92 299.143C54.736 300.167 53.472 300.679 52.128 300.679C51.392 300.679 50.768 300.583 50.256 300.391V301.735C50.256 304.775 50.24 308.103 50.208 311.719V321.703C50.176 322.983 50.16 324.087 50.16 325.015V325.927V326.263H48.192H45.072H34.08H23.04H19.968H19.008H18.384H18.048V326.215H18V325.927V324.967V321.703L18.048 311.719C18.048 308.071 18.064 304.727 18.096 301.687V298.423V297.895C18.032 297.511 18.032 297.079 18.096 296.599C18.256 295.351 18.864 294.263 19.92 293.335C20.976 292.407 22.192 291.847 23.568 291.655C24.88 291.463 25.92 291.751 26.688 292.519C27.488 293.255 27.824 294.295 27.696 295.639C27.6 296.951 26.944 298.119 25.728 299.143C24.544 300.167 23.264 300.695 21.888 300.727Z" fill="#4963F7"/>
<path d="M125.2 232.44C125.28 242.92 119.28 250.28 107.2 254.52C102.16 256.28 96.12 257.36 89.08 257.76L88.12 282.48L84.64 282.36L85.84 246.48H82.6L81.76 282.72L71.68 283.44L73.84 200.28L83.56 199.92L82.96 223.2H86.68C86.92 217.84 87.2 210.08 87.52 199.92C98.96 199.12 108.16 201.88 115.12 208.2C121.76 214.28 125.12 222.36 125.2 232.44ZM117.28 233.64C117.68 227.24 115.56 221.68 110.92 216.96C106.36 212.16 101 209.76 94.84 209.76C93.24 209.76 91.68 209.96 90.16 210.36L88.48 252.36C93.92 251.72 98.6 250.64 102.52 249.12C111.88 245.68 116.8 240.52 117.28 233.64ZM86.68 225.6H82.96L82.84 229.32H86.44C86.52 228.84 86.6 227.6 86.68 225.6ZM86.44 231.72H82.84L82.72 237.24H86.2L86.44 231.72ZM86.08 239.64H82.72L82.6 244.08H85.96L86.08 239.64ZM159.523 278.4L156.523 281.76C154.923 283.52 153.443 284.4 152.083 284.4C149.443 284.4 146.683 282.08 143.803 277.44C141.803 274.16 140.203 270.72 139.003 267.12C137.803 269.2 135.763 272.52 132.883 277.08C132.163 278.2 131.083 279.76 129.643 281.76L127.003 279.72C130.363 274.68 133.723 268.12 137.083 260.04C135.323 252.36 134.443 244.56 134.443 236.64C134.443 228.32 135.363 220.36 137.203 212.76C139.683 202.36 143.243 197.16 147.883 197.16C150.763 197.16 152.363 199.56 152.683 204.36C152.843 206.44 152.923 208.56 152.923 210.72C152.923 228.16 149.843 244.04 143.683 258.36C146.323 268.44 150.243 274.68 155.443 277.08C156.243 277.56 157.043 277.08 157.843 275.64L159.523 278.4ZM146.323 208.8C146.323 208.48 146.203 207.56 145.963 206.04C142.683 212.6 141.043 222.64 141.043 236.16C141.043 239.44 141.243 243.2 141.643 247.44C144.923 236.32 146.563 225.52 146.563 215.04C146.563 212.88 146.483 210.8 146.323 208.8ZM212.627 275.4L212.027 281.76C210.107 283.52 208.147 284.4 206.147 284.4C202.307 284.4 199.987 281.04 199.187 274.32C197.587 276.56 194.827 278.6 190.907 280.44C186.987 282.28 183.147 283.2 179.387 283.2C168.667 283.2 163.307 278.16 163.307 268.08C163.307 264.32 164.747 260.4 167.627 256.32C171.707 250.56 177.467 247.68 184.907 247.68C190.667 247.68 195.347 249.04 198.947 251.76C197.267 238.16 192.947 231.36 185.987 231.36C182.627 231.36 179.267 232.88 175.907 235.92L173.387 232.8C174.827 230.32 177.387 228.28 181.067 226.68C184.427 225.24 187.587 224.6 190.547 224.76C196.707 225.08 201.427 228.44 204.707 234.84C207.587 240.36 209.027 247.12 209.027 255.12C209.027 256.56 208.947 258.44 208.787 260.76C208.707 263.08 208.667 264.88 208.667 266.16C208.667 272.88 208.627 275.16 208.547 273C208.627 275.88 209.107 277.32 209.987 277.32C210.227 277.32 210.627 277.08 211.187 276.6C211.747 276.04 212.227 275.64 212.627 275.4ZM199.307 262.2C196.267 258.2 193.027 255.76 189.587 254.88L188.747 275.76C192.827 274.24 196.227 272.08 198.947 269.28C198.947 269.36 199.067 267 199.307 262.2ZM187.187 254.52C186.227 254.36 185.467 254.28 184.907 254.28L183.947 276.6C184.507 276.6 185.267 276.52 186.227 276.36C186.307 276.28 186.627 269 187.187 254.52ZM182.507 254.16H182.267C181.547 254.16 180.747 254.32 179.867 254.64L178.907 276.36C179.547 276.36 180.467 276.44 181.667 276.6C181.987 269.08 182.267 261.6 182.507 254.16ZM177.347 255.72C172.067 258.6 169.427 262.28 169.427 266.76C169.427 271.64 171.827 274.68 176.627 275.88C176.947 269.16 177.187 262.44 177.347 255.72ZM265.279 228.72C263.839 233.28 261.919 240.44 259.519 250.2C257.199 259.56 255.319 266.48 253.879 270.96C249.079 286.08 243.079 297.16 235.879 304.2C231.799 308.2 226.999 310.2 221.479 310.2C218.039 310.2 215.399 308.88 213.559 306.24C211.959 303.92 211.159 300.96 211.159 297.36C211.159 294.56 211.999 291.72 213.679 288.84C216.239 284.6 219.999 282.48 224.959 282.48C226.479 282.48 227.959 283.2 229.399 284.64C230.919 286.16 231.679 287.68 231.679 289.2C231.679 290.96 231.239 292.64 230.359 294.24L226.039 298.68L223.879 297.12C224.519 295.68 224.839 294.44 224.839 293.4C224.839 292.44 224.519 291.52 223.879 290.64C223.319 289.76 222.559 289.32 221.599 289.32C220.639 289.32 219.799 289.8 219.079 290.76C218.359 291.72 217.999 292.52 217.999 293.16C217.999 299.96 220.559 303.36 225.679 303.36C228.319 303.36 230.799 301.96 233.119 299.16C236.159 295.56 239.039 289.96 241.759 282.36L228.919 259.8L225.079 262.32L223.879 260.4L227.839 257.88L226.639 255.84C225.999 256.24 224.759 257.04 222.919 258.24L221.719 256.32C222.999 255.44 224.279 254.64 225.559 253.92L224.239 251.52L220.519 253.92L219.319 252L223.039 249.6C223.119 249.52 219.959 243.88 213.559 232.68L223.999 226.92L231.919 243.96L239.959 238.8L241.159 240.72L232.879 246C233.119 246.4 233.519 247.2 234.079 248.4L242.359 243.12L243.559 245.04L235.039 250.44L236.119 252.6L244.519 247.2L245.719 249.12L237.079 254.64L245.359 272.16C246.719 267.68 248.679 260.24 251.239 249.84C253.879 239.04 255.839 231.48 257.119 227.16L265.279 228.72ZM296.281 278.4L293.281 281.76C291.681 283.52 290.201 284.4 288.841 284.4C286.201 284.4 283.441 282.08 280.561 277.44C278.561 274.16 276.961 270.72 275.761 267.12C274.561 269.2 272.521 272.52 269.641 277.08C268.921 278.2 267.841 279.76 266.401 281.76L263.761 279.72C267.121 274.68 270.481 268.12 273.841 260.04C272.081 252.36 271.201 244.56 271.201 236.64C271.201 228.32 272.121 220.36 273.961 212.76C276.441 202.36 280.001 197.16 284.641 197.16C287.521 197.16 289.121 199.56 289.441 204.36C289.601 206.44 289.681 208.56 289.681 210.72C289.681 228.16 286.601 244.04 280.441 258.36C283.081 268.44 287.001 274.68 292.201 277.08C293.001 277.56 293.801 277.08 294.601 275.64L296.281 278.4ZM283.081 208.8C283.081 208.48 282.961 207.56 282.721 206.04C279.441 212.6 277.801 222.64 277.801 236.16C277.801 239.44 278.001 243.2 278.401 247.44C281.681 236.32 283.321 225.52 283.321 215.04C283.321 212.88 283.241 210.8 283.081 208.8ZM320.224 211.44C320.224 214.32 319.184 216.8 317.104 218.88C315.104 220.88 312.664 221.88 309.784 221.88C306.904 221.88 304.424 220.88 302.344 218.88C300.344 216.8 299.344 214.32 299.344 211.44C299.344 208.56 300.344 206.12 302.344 204.12C304.424 202.04 306.904 201 309.784 201C312.664 201 315.104 202.04 317.104 204.12C319.184 206.12 320.224 208.56 320.224 211.44ZM316.024 226.8L315.784 282.96L313.864 282.72L313.624 226.8H316.024ZM311.464 283.2L304.024 282.48L303.064 227.04H311.464V283.2ZM314.224 211.44C314.224 210.24 313.784 209.2 312.904 208.32C312.024 207.44 310.984 207 309.784 207C308.584 207 307.544 207.44 306.664 208.32C305.784 209.2 305.344 210.24 305.344 211.44C305.344 212.64 305.784 213.68 306.664 214.56C307.544 215.44 308.584 215.88 309.784 215.88C310.984 215.88 312.024 215.44 312.904 214.56C313.784 213.68 314.224 212.64 314.224 211.44ZM345.615 206.04C345.455 208.76 345.135 214.96 344.655 224.64L333.735 224.88L333.375 211.08L345.615 206.04ZM353.775 228.96L324.495 229.68V227.28L353.775 226.56V228.96ZM353.775 233.04L324.495 233.76V231.36L353.775 230.64V233.04ZM364.455 264.48C364.455 272.24 361.935 277.76 356.895 281.04C353.855 282.96 350.335 283.92 346.335 283.92C342.815 283.92 339.935 282.36 337.695 279.24C335.615 276.36 334.575 272.96 334.575 269.04C334.575 260.24 334.415 249.12 334.095 235.68L344.415 235.44L342.855 264.84C342.855 273.08 345.415 277.2 350.535 277.2C352.535 277.2 354.295 276.8 355.815 276C357.015 273.92 357.615 271.48 357.615 268.68C357.615 265.48 355.815 263.88 352.215 263.88L349.095 267.12L346.815 265.8C347.535 263 348.895 260.8 350.895 259.2C352.655 257.76 354.455 257.04 356.295 257.04C358.615 257.04 360.535 257.76 362.055 259.2C363.655 260.56 364.455 262.32 364.455 264.48ZM419.429 279.36C416.949 280 414.429 280.68 411.869 281.4C408.189 282.12 403.469 282.48 397.709 282.48C390.189 282.48 384.029 280.24 379.229 275.76C373.709 270.64 370.949 263.12 370.949 253.2C370.949 245.2 374.309 238.84 381.029 234.12C386.709 230.04 393.189 228 400.469 228C411.429 228 417.749 233.52 419.429 244.56L379.109 245.52C378.629 246.8 378.349 247.84 378.269 248.64L419.069 247.44L418.829 250.32L377.789 251.52V253.2C377.789 260.16 379.869 266 384.029 270.72C387.949 275.2 392.749 277.44 398.429 277.44C404.349 277.44 410.989 276.64 418.349 275.04L419.429 279.36ZM413.309 240.24C410.829 235.44 406.669 233.04 400.829 233.04C391.549 233.04 384.869 236.12 380.789 242.28L413.309 240.24ZM462.13 249.12L456.49 247.68C457.37 245.52 457.81 243.48 457.81 241.56C457.81 237.64 456.09 235.68 452.65 235.68C447.61 235.68 443.33 239.68 439.81 247.68L439.57 261.12L430.69 261L431.41 235.68L423.25 234.48V228.96L438.85 229.2L439.09 237.12C440.69 235.28 442.29 233.44 443.89 231.6C446.37 229.52 449.77 228.48 454.09 228.48C457.37 228.48 459.97 229.68 461.89 232.08C463.57 234.32 464.41 237.08 464.41 240.36C464.41 243.56 463.65 246.48 462.13 249.12ZM447.49 265.68L427.57 264.96V262.56L447.49 263.28V265.68ZM439.45 267.12L439.33 282L429.97 283.44L430.45 267L439.45 267.12Z" fill="white"/>
<path d="M431.36 312.36L431.12 314.904C430.352 315.608 429.568 315.96 428.768 315.96C427.232 315.96 426.304 314.616 425.984 311.928C425.344 312.824 424.24 313.64 422.672 314.376C421.104 315.112 419.568 315.48 418.064 315.48C413.776 315.48 411.632 313.464 411.632 309.432C411.632 307.928 412.208 306.36 413.36 304.728C414.992 302.424 417.296 301.272 420.272 301.272C422.576 301.272 424.448 301.816 425.888 302.904C425.216 297.464 423.488 294.744 420.704 294.744C419.36 294.744 418.016 295.352 416.672 296.568L415.664 295.32C416.24 294.328 417.264 293.512 418.736 292.872C420.08 292.296 421.344 292.04 422.528 292.104C424.992 292.232 426.88 293.576 428.192 296.136C429.344 298.344 429.92 301.048 429.92 304.248C429.92 304.824 429.888 305.576 429.824 306.504C429.792 307.432 429.776 308.152 429.776 308.664C429.776 311.352 429.76 312.264 429.728 311.4C429.76 312.552 429.952 313.128 430.304 313.128C430.4 313.128 430.56 313.032 430.784 312.84C431.008 312.616 431.2 312.456 431.36 312.36ZM426.032 307.08C424.816 305.48 423.52 304.504 422.144 304.152L421.808 312.504C423.44 311.896 424.8 311.032 425.888 309.912C425.888 309.944 425.936 309 426.032 307.08ZM421.184 304.008C420.8 303.944 420.496 303.912 420.272 303.912L419.888 312.84C420.112 312.84 420.416 312.808 420.8 312.744C420.832 312.712 420.96 309.8 421.184 304.008ZM419.312 303.864H419.216C418.928 303.864 418.608 303.928 418.256 304.056L417.872 312.744C418.128 312.744 418.496 312.776 418.976 312.84C419.104 309.832 419.216 306.84 419.312 303.864ZM417.248 304.488C415.136 305.64 414.08 307.112 414.08 308.904C414.08 310.856 415.04 312.072 416.96 312.552C417.088 309.864 417.184 307.176 417.248 304.488ZM452.901 303.72C452.901 306.632 452.053 309.016 450.357 310.872C448.693 312.696 446.725 313.656 444.453 313.752C442.053 313.848 439.909 313.16 438.021 311.688L438.165 320.184L441.093 320.376L440.997 321.336L438.165 321.144L438.213 323.016L440.949 323.208L440.853 324.168L438.213 323.976L438.309 327.72L434.325 327.336L434.373 323.688L432.933 323.592L433.029 322.632L434.373 322.728L434.421 320.856L433.077 320.76L433.173 319.8L434.421 319.896L434.805 292.776L437.637 292.968L437.685 295.368C438.933 294.472 440.709 293.976 443.013 293.88C445.573 293.784 447.829 294.648 449.781 296.472C451.861 298.392 452.901 300.808 452.901 303.72ZM449.637 303.624C449.637 301.672 448.981 299.976 447.669 298.536C446.389 297.064 444.901 296.248 443.205 296.088C441.189 295.896 439.365 296.328 437.733 297.384C437.829 301.288 437.893 305.192 437.925 309.096C439.877 310.632 441.733 311.336 443.493 311.208C445.285 311.08 446.773 310.216 447.957 308.616C449.077 307.112 449.637 305.448 449.637 303.624ZM446.181 299.928C446.181 300.856 445.717 301.32 444.789 301.32C443.861 301.32 443.397 300.856 443.397 299.928C443.397 299 443.861 298.536 444.789 298.536C445.717 298.536 446.181 299 446.181 299.928ZM447.813 303.288C448.133 303.96 447.957 304.456 447.285 304.776C446.581 305.096 446.085 304.92 445.797 304.248C445.477 303.544 445.653 303.048 446.325 302.76C446.997 302.472 447.493 302.648 447.813 303.288ZM446.373 307.032C446.757 307.736 446.581 308.28 445.845 308.664C445.429 308.856 445.029 308.84 444.645 308.616C444.261 308.36 444.069 308.008 444.069 307.56C444.069 306.76 444.453 306.36 445.221 306.36C445.733 306.36 446.117 306.584 446.373 307.032ZM474.932 303.72C474.932 306.632 474.084 309.016 472.388 310.872C470.724 312.696 468.756 313.656 466.484 313.752C464.084 313.848 461.94 313.16 460.052 311.688L460.196 320.184L463.124 320.376L463.028 321.336L460.196 321.144L460.244 323.016L462.98 323.208L462.884 324.168L460.244 323.976L460.34 327.72L456.356 327.336L456.404 323.688L454.964 323.592L455.06 322.632L456.404 322.728L456.452 320.856L455.108 320.76L455.204 319.8L456.452 319.896L456.836 292.776L459.668 292.968L459.716 295.368C460.964 294.472 462.74 293.976 465.044 293.88C467.604 293.784 469.86 294.648 471.812 296.472C473.892 298.392 474.932 300.808 474.932 303.72ZM471.668 303.624C471.668 301.672 471.012 299.976 469.7 298.536C468.42 297.064 466.932 296.248 465.236 296.088C463.22 295.896 461.396 296.328 459.764 297.384C459.86 301.288 459.924 305.192 459.956 309.096C461.908 310.632 463.764 311.336 465.524 311.208C467.316 311.08 468.804 310.216 469.988 308.616C471.108 307.112 471.668 305.448 471.668 303.624ZM468.212 299.928C468.212 300.856 467.748 301.32 466.82 301.32C465.892 301.32 465.428 300.856 465.428 299.928C465.428 299 465.892 298.536 466.82 298.536C467.748 298.536 468.212 299 468.212 299.928ZM469.844 303.288C470.164 303.96 469.988 304.456 469.316 304.776C468.612 305.096 468.116 304.92 467.828 304.248C467.508 303.544 467.684 303.048 468.356 302.76C469.028 302.472 469.524 302.648 469.844 303.288ZM468.404 307.032C468.788 307.736 468.612 308.28 467.876 308.664C467.46 308.856 467.06 308.84 466.676 308.616C466.292 308.36 466.1 308.008 466.1 307.56C466.1 306.76 466.484 306.36 467.252 306.36C467.764 306.36 468.148 306.584 468.404 307.032Z" fill="white"/>
</svg>
